Coordinates
version=1
nRows=15
nColumns=34
inDegrees=yes

Units are S.I. units (second, meters, Newtons, ...)
If the header above contains a line with 'inDegrees', this indicates whether rotational values are in degrees (yes) or radians (no).

endheader
time	pelvis_tilt	pelvis_list	pelvis_rotation	pelvis_tx	pelvis_ty	pelvis_tz	hip_flexion_r	hip_adduction_r	hip_rotation_r	knee_angle_r	ankle_angle_r	subtalar_angle_r	mtp_angle_r	hip_flexion_l	hip_adduction_l	hip_rotation_l	knee_angle_l	ankle_angle_l	subtalar_angle_l	mtp_angle_l	lumbar_extension	lumbar_bending	lumbar_rotation	arm_flex_r	arm_add_r	arm_rot_r	elbow_flex_r	pro_sup_r	arm_flex_l	arm_add_l	arm_rot_l	elbow_flex_l	pro_sup_l
      2.55000000	      0.29319634	     -0.37433819	     13.68949823	      0.35340718	      0.86496570	      0.10893313	     26.14629978	     -9.34400767	    -14.46542200	     25.05134436	     -7.36960027	      2.35635303	      0.00000000	     24.84379389	     -6.95763567	     -7.10307437	     21.06653681	    -12.35911293	     -4.55800189	      0.00000000	    -16.37847446	      4.92296945	     -7.63869923	    -76.71809058	    -87.81944439	    -59.04337757	    129.63188049	     74.32975332	    -52.75049791	    -60.20765316	    -54.22172793	    139.30783638	     79.79217275
      2.56666670	      1.76274848	     -0.23222967	     12.78887422	      0.36792061	      0.83368044	      0.10457489	     30.84798923	    -10.36209437	    -13.99116809	     36.33468963	     -1.65981150	     -3.04408982	      0.00000000	     28.75156894	     -6.90475943	     -3.14464256	     32.44133471	     -6.47588343	    -13.43386454	      0.00000000	    -19.74354960	      5.93727558	     -8.37943163	    -75.64654169	    -97.32598538	    -61.43525419	    124.78208132	     74.08741531	    -44.24553328	    -57.64715049	    -49.92247037	    139.28561181	     79.72399756
      2.58333330	      2.67588803	     -0.17158525	     12.46196549	      0.38063978	      0.79450482	      0.09881946	     37.73795884	    -12.29491186	    -13.03797416	     50.85359664	      4.50297251	     -8.41077958	      0.00000000	     35.15856216	     -6.31565309	      0.01363903	     47.88514693	      2.16613122	    -20.23916864	      0.00000000	    -22.17902837	      6.23337756	     -8.78161093	    -94.39224908	   -103.59479239	    -85.15215099	    118.51807096	     71.68321876	    -32.21113741	    -58.18865455	    -42.84512261	    137.76777200	     78.60855065
      2.60000000	      3.26257549	     -0.20770446	     12.12753219	      0.38324463	      0.76143891	      0.09311022	     44.65163775	    -13.97464832	    -11.46066414	     63.16977364	      9.78176697	    -11.10744859	      0.00000000	     42.61112746	     -5.45942420	      2.06297724	     62.97500451	      7.93325288	    -26.25897250	      0.00000000	    -26.28461871	      7.26610982	    -10.81048670	    -91.30667488	   -109.59526485	    -89.32405503	    116.72307697	     72.10517961	    -26.68023505	    -55.56604497	    -43.38300938	    139.78342186	     78.23988401
      2.61666670	      3.45117063	     -0.52920734	     12.58931674	      0.39533589	      0.72376349	      0.09456169	     50.78174837	    -15.17792922	    -10.70295876	     73.92781823	     14.74467672	    -13.20870862	      0.00000000	     49.25725787	     -5.37527735	      3.77877433	     74.88704230	     12.41358771	    -28.03136408	      0.00000000	    -29.47198474	      8.41920762	    -13.25803617	    -91.32529327	   -117.08388945	    -95.28267391	    114.05506827	     72.93695377	    -19.52644377	    -54.40430442	    -42.28873579	    141.35569965	     77.02411244
      2.63333330	      3.32619896	     -0.38508934	     12.62854678	      0.40698717	      0.69179602	      0.09821174	     55.69109590	    -15.86479466	    -10.01013428	     81.99178564	     17.77159530	    -15.88007269	      0.00000000	     53.95587631	     -5.86052792	      4.45131314	     83.71273393	     15.25215543	    -28.09869000	      0.00000000	    -32.36662226	      7.87330092	    -14.25951521	    -97.64811738	   -122.68068000	   -108.54640011	    112.64612648	     75.26367754	     -9.75211222	    -54.76411514	    -38.69473487	    142.30620616	     73.77362921
      2.65000000	      3.34656612	     -0.86907692	     13.19525965	      0.40687446	      0.65716441	      0.09602815	     59.73974781	    -16.68752540	     -9.68774801	     88.61588124	     20.81484566	    -16.73290500	      0.00000000	     58.65158367	     -6.31459357	      5.74212536	     91.28650926	     19.05690238	    -26.21409426	      0.00000000	    -35.12521464	      5.84359025	      2.96865073	   -125.41115043	   -105.43017864	   -140.97489300	    121.96547038	     81.38165596	     45.00056398	    -42.88507536	     14.99562536	    128.09035560	     74.28304839
      2.66666670	      2.26627016	     -1.14848783	     13.38495363	      0.42391267	      0.61970984	      0.09038259	     64.67647598	    -17.94196019	     -8.23110653	     95.56893254	     25.29775149	    -15.01043718	      0.00000000	     63.46936786	     -6.98111109	      6.53490437	     98.03445134	     21.99319593	    -24.59372579	      0.00000000	    -37.03406352	      5.47735796	      2.99829389	   -120.97502705	   -112.97346747	   -142.37075201	    122.02700848	     82.65429520	     50.71667529	    -36.67901967	     17.38546055	    128.03978712	     74.60593854
      2.68333330	      1.56942719	     -1.34712581	     13.20274675	      0.42809470	      0.58597325	      0.08472992	     69.37853670	    -18.97290457	     -6.30104152	    101.88840972	     28.92075399	    -13.33319949	      0.00000000	     68.01543001	     -7.64304000	      6.97997108	    104.36482334	     24.52694926	    -22.72833497	      0.00000000	    -39.82252877	      5.71526051	      2.92429542	   -108.62940401	   -120.57193105	   -137.18622341	    122.71037347	     88.20067834	     55.77255749	    -31.02164957	     17.42313798	    128.02460815	     76.60190430
      2.70000000	      1.26755650	     -1.68835816	     12.98219999	      0.43124434	      0.55279545	      0.08477614	     74.02643724	    -19.89464393	     -4.58937825	    108.11682281	     31.78258689	    -11.92868848	      0.00000000	     72.49890457	     -8.56812083	      7.88454872	    110.58868761	     26.96522118	    -20.50232271	      0.00000000	    -42.55803823	      5.95689312	      1.56776737	   -104.58584742	   -130.48936183	   -141.29013305	    122.72620370	     90.67437528	     62.00238346	    -27.67979148	     17.43211294	    128.35760000	     78.02848768
      2.71666670	      0.93099817	     -2.18505327	     13.09583165	      0.44308719	      0.52460126	      0.08129966	     77.66117897	    -21.00736269	     -3.08176348	    113.70896927	     34.67794969	    -10.41402586	      0.00000000	     76.71207114	     -9.36013232	      9.14573826	    116.45048524	     28.88900852	    -18.80150998	      0.00000000	    -44.93830480	      6.36376632	      1.26539141	   -100.07331640	   -137.61336166	   -144.23451635	    124.74722471	     91.66718841	     68.12800947	    -23.29666440	     18.14514082	    128.98642658	     78.91534453
      2.73333330	      0.71287661	     -2.69400537	     13.31715445	      0.43825681	      0.49325677	      0.07512853	     81.47701048	    -22.41009643	     -1.58156806	    118.63913929	     36.88126756	     -8.81041479	      0.00000000	     81.18833464	     -9.40648733	     10.42216974	    121.86159765	     30.92591961	    -16.92665015	      0.00000000	    -47.65061150	      6.83243179	      0.67779477	    -94.25268446	   -144.22146439	   -147.16711809	    125.80802564	     92.71887694	     75.05722861	    -19.34752500	     18.65519237	    128.45946725	     80.04305608
      2.75000000	      0.03831019	     -3.46771389	     13.73835802	      0.44564062	      0.46167896	      0.07491560	     85.82209272	    -23.82137181	      0.14563317	    123.65242229	     39.17811728	     -6.70520919	      0.00000000	     86.09591975	     -9.53688163	     12.65722535	    127.16981533	     32.65162674	    -14.50220301	      0.00000000	    -48.90261499	      7.45927757	      0.44669480	    -89.55963182	   -150.15335932	   -150.39377080	    126.34008765	    103.51350044	     81.75668514	    -16.16323820	     19.34473025	    127.64702060	     91.99031391
      2.76666670	     -0.75983943	     -4.06617826	     13.70701310	      0.44823016	      0.43777791	      0.07691017	     89.54288760	    -24.62105041	      1.48549760	    127.49210656	     41.35251378	     -4.22826264	      0.00000000	     90.51218035	    -10.00642018	     14.91017492	    131.64420650	     34.43224206	    -11.54845293	      0.00000000	    -50.11282633	      7.73102865	      0.72003264	    -83.94672487	   -155.25764460	   -151.86858325	    125.73411507	    103.71566980	     88.25257728	    -13.76783318	     19.89594299	    126.26688465	     92.59190995
      2.78333330	     -1.00802209	     -4.54664923	     13.73728999	      0.45613601	      0.41453721	      0.07772126	     92.75753997	    -25.29127732	      2.97464965	    131.35198635	     42.78285678	     -2.43515342	      0.00000000	     94.26283375	    -10.53998501	     17.79566689	    135.80624369	     35.73088712	     -8.39865198	      0.00000000	    -50.95380581	      7.96164424	      1.13238310	    -79.81133163	   -159.64345182	   -153.05224003	    124.40421295	    104.17454262	     93.13640834	    -11.94908373	     20.94810631	    124.45725717	     93.47946122
